<svg preserveAspectRatio="none" width="100%" height="100%" overflow="visible" style="display: block;" viewBox="0 0 533 640" fill="none" xmlns="http://www.w3.org/2000/svg">
<foreignObject x="-80" y="-80" width="693" height="800"><div xmlns="http://www.w3.org/1999/xhtml" style="backdrop-filter:blur(40px);clip-path:url(#bgblur_0_2977_46403_clip_path);height:100%;width:100%"></div></foreignObject><path id="Rectangle 4165" data-figma-bg-blur-radius="80" d="M38 1H495C515.435 1 532 17.5655 532 38V602C532 622.435 515.435 639 495 639H38C17.5655 639 1 622.435 1 602V38C1 17.5655 17.5655 1 38 1Z" fill="var(--fill-0, #76BBDD)" fill-opacity="0.79" stroke="url(#paint0_linear_2977_46403)" stroke-width="2"/>
<defs>
<clipPath id="bgblur_0_2977_46403_clip_path" transform="translate(80 80)"><path d="M38 1H495C515.435 1 532 17.5655 532 38V602C532 622.435 515.435 639 495 639H38C17.5655 639 1 622.435 1 602V38C1 17.5655 17.5655 1 38 1Z"/>
</clipPath><linearGradient id="paint0_linear_2977_46403" x1="-6.35711e-05" y1="-51.8312" x2="431.199" y2="79.5675" gradientUnits="userSpaceOnUse">
<stop stop-color="white" stop-opacity="0.59"/>
<stop offset="1" stop-color="white" stop-opacity="0"/>
</linearGradient>
</defs>
</svg>
