<svg width="176" height="72" viewBox="0 0 176 72" fill="none" xmlns="http://www.w3.org/2000/svg">
<path d="M37.1565 1.65854C37.1669 1.13454 37.2022 0.721674 37.4631 0.261639C38.0171 -0.0456273 38.4892 0.00123748 39.118 0.0144055C39.2429 0.0166258 39.3678 0.0188462 39.4965 0.0211339C42.8737 0.0981817 42.8737 0.0981817 43.9053 0.442052C43.9053 0.567496 43.9053 0.692939 43.9053 0.822183C44.0457 0.813363 44.1861 0.804543 44.3307 0.795455C46.4835 0.718862 48.1953 1.26199 49.7973 2.72284C50.9334 3.79432 51.7587 5.14864 51.9622 6.71435C52.0036 8.70738 51.5057 10.3924 50.9021 12.2736C50.7993 12.6038 50.6968 12.9341 50.5947 13.2645C50.3798 13.9574 50.1628 14.6496 49.944 15.3412C49.4379 16.9411 48.9435 18.5447 48.4476 20.1478C48.2936 20.6444 48.1385 21.1406 47.983 21.6367C47.451 23.3393 46.9422 25.0446 46.482 26.7682C46.2057 27.7919 46.2057 27.7919 45.996 28.0015C45.9351 28.3074 45.8824 28.6149 45.8334 28.9229C45.6334 30.0668 45.3309 31.1582 44.9863 32.2661C44.927 32.4574 44.8677 32.6486 44.8066 32.8457C44.1451 34.9484 43.501 36.7872 42.0046 38.4551C41.887 38.5882 41.7694 38.7212 41.6483 38.8583C40.0317 40.5824 38.2148 41.3695 35.9225 41.8763C35.7344 41.8763 35.5462 41.8763 35.3523 41.8763H33.0715C32.9542 41.8714 32.8368 41.8665 32.7159 41.8614C31.4826 41.7788 30.5471 41.5066 29.4603 40.926C29.3054 40.8456 29.1506 40.7652 28.9911 40.6824C26.0417 39.0439 24.6225 36.4871 23.6843 33.3293C23.563 32.9257 23.4346 32.5247 23.3054 32.1236C22.8597 30.7124 22.5136 29.4014 22.4731 27.9095C22.4542 27.4285 22.4542 27.4285 22.2373 27.0178C21.9991 26.3433 22.0001 25.7216 22.0106 25.0162C22.0111 24.8783 22.0117 24.7404 22.0122 24.5984C22.0143 24.1607 22.0191 23.7231 22.024 23.2855C22.0259 22.9877 22.0276 22.6898 22.0292 22.392C22.0333 21.6643 22.0399 20.9366 22.0477 20.2088C22.4279 20.3989 22.4279 20.3989 22.602 20.8669C22.6607 21.0707 22.7193 21.2744 22.7798 21.4844C22.846 21.709 22.9122 21.9336 22.9804 22.165C23.049 22.3976 23.1175 22.6301 23.1881 22.8698C23.3228 23.2964 23.4589 23.7226 23.5965 24.1482C23.6998 24.4689 23.6998 24.4689 23.8053 24.7959C23.876 25.0149 23.9468 25.2338 24.0197 25.4594C25.0917 28.7886 25.0917 28.7886 25.5283 30.1635C25.5741 30.3071 25.6199 30.4507 25.667 30.5987C25.8706 31.243 26.0653 31.8873 26.2373 32.5408C26.9609 35.2754 28.046 37.166 30.5294 38.6214C32.3466 39.5472 34.3676 39.7209 36.3502 39.1916C37.79 38.6887 39.0985 37.8979 40.104 36.7445C40.2333 36.5995 40.3627 36.4544 40.496 36.305C41.5278 34.8738 41.9323 33.308 42.3848 31.6246C42.7522 30.262 43.1129 28.9508 43.7169 27.6734C44.1069 26.7788 44.3628 25.8349 44.6418 24.9011C44.7078 24.6833 44.7738 24.4656 44.8418 24.2412C45.0376 23.5943 45.2319 22.947 45.4258 22.2996C45.5275 21.9615 45.6292 21.6234 45.731 21.2854C45.9157 20.6705 46.1001 20.0555 46.2841 19.4404C46.5868 18.4291 46.8903 17.418 47.1958 16.4075C47.2495 16.2289 47.3032 16.0503 47.3585 15.8663C47.6758 14.8202 48.0103 13.7818 48.3614 12.7466C48.4793 12.3947 48.4793 12.3947 48.5995 12.0357C48.7523 11.5813 48.9079 11.1278 49.0666 10.6755C49.6567 8.9115 49.9835 7.24172 49.2034 5.49066C48.4855 4.23936 47.6428 3.62529 46.2603 3.20914C45.5407 3.041 44.8317 2.97134 44.0954 2.9129C44.0071 3.09519 44.0071 3.09519 43.9172 3.28115C43.7152 3.67316 43.7152 3.67316 43.5252 3.86323C42.9151 3.91454 42.3064 3.94802 41.695 3.97831C41.0335 3.9577 41.0335 3.9577 40.4841 4.24336C40.1209 4.27734 39.756 4.2943 39.3912 4.30275C39.0928 4.31341 39.0928 4.31341 38.7884 4.32428C38.0421 4.22106 37.7483 4.05078 37.253 3.4831C37.1401 2.80525 37.1401 2.80525 37.1579 2.04573C37.1572 1.85407 37.1572 1.85407 37.1565 1.65854Z" fill="white"/>
<path d="M39.1177 0.0144055C39.2426 0.0166258 39.3675 0.0188462 39.4961 0.0211338C42.8733 0.0981817 42.8733 0.0981817 43.905 0.442052C43.905 0.567495 43.905 0.692939 43.905 0.822183C44.0453 0.813363 44.1857 0.804542 44.3304 0.795455C46.4832 0.718862 48.195 1.26198 49.797 2.72284C50.9331 3.79432 51.7584 5.14864 51.9618 6.71435C52.0033 8.70738 51.5054 10.3924 50.9018 12.2736C50.7989 12.6038 50.6965 12.9341 50.5943 13.2645C50.3795 13.9574 50.1625 14.6496 49.9436 15.3412C49.4375 16.9411 48.9432 18.5447 48.4473 20.1478C48.2933 20.6444 48.1381 21.1406 47.9827 21.6367C47.8848 21.9502 47.7869 22.2637 47.6892 22.5772C47.6187 22.803 47.6187 22.803 47.5468 23.0333C47.3085 23.8044 47.0823 24.5769 46.8732 25.3564C46.8312 25.5126 46.7892 25.6688 46.7459 25.8297C46.6673 26.1254 46.5903 26.4215 46.5151 26.7181C46.3222 27.4475 46.1258 28.0077 45.6155 28.5717C45.4274 28.4463 45.2392 28.3208 45.0453 28.1916C44.6037 28.1167 44.16 28.0519 43.7149 28.0015C44.2951 25.922 44.8921 23.857 45.5888 21.8133C45.8686 20.9691 46.108 20.1161 46.3483 19.26C46.6118 18.3296 46.8912 17.4042 47.1717 16.4788C47.2268 16.296 47.2819 16.1131 47.3387 15.9247C47.6633 14.8578 48.0044 13.7983 48.3626 12.7421C48.4409 12.5081 48.5193 12.2742 48.6 12.0332C48.7525 11.5797 48.9078 11.1272 49.0662 10.6758C49.6563 8.91168 49.9832 7.24183 49.203 5.49066C48.4851 4.23936 47.6425 3.62529 46.26 3.20914C45.5404 3.041 44.8314 2.97134 44.095 2.9129C44.0362 3.03442 43.9774 3.15595 43.9168 3.28115C43.7149 3.67316 43.7149 3.67316 43.5248 3.86323C42.9147 3.91454 42.3061 3.94802 41.6947 3.97831C41.0332 3.9577 41.0332 3.9577 40.4838 4.24336C40.1205 4.27734 39.7556 4.2943 39.3909 4.30275C39.1919 4.30986 38.993 4.31696 38.788 4.32428C38.0418 4.22106 37.748 4.05078 37.2527 3.4831C37.1398 2.80525 37.1398 2.80525 37.1576 2.04573C37.1571 1.91796 37.1566 1.79019 37.1561 1.65854C37.1665 1.13454 37.2019 0.721673 37.4628 0.261639C38.0168 -0.0456273 38.4889 0.00123748 39.1177 0.0144055Z" fill="#76BBDD"/>
<path d="M28.3434 0.0458458C28.7314 0.0315712 29.1192 0.0222162 29.5074 0.0148489C29.7397 0.00994873 29.972 0.00504861 30.2113 0C30.7904 0.0623652 30.7904 0.0623652 31.1505 0.2554C31.4869 0.859378 31.4503 1.4802 31.4437 2.15308C31.4475 2.29078 31.4513 2.42847 31.4552 2.57034C31.4547 3.17284 31.4424 3.57074 31.0606 4.05077C30.4322 4.31429 29.9135 4.3054 29.2342 4.29132C28.9963 4.28838 28.7584 4.28544 28.5133 4.28241C27.9394 4.2438 27.9394 4.2438 27.7493 4.05374C27.0729 4.01481 26.3967 3.99298 25.7195 3.97281C25.0884 3.86367 25.0884 3.86367 24.7729 3.48206C24.6888 3.3571 24.6048 3.23215 24.5182 3.10341C23.2675 2.77065 22.2019 3.21858 21.1215 3.82729C20.7169 4.05374 20.7169 4.05374 20.1467 4.2438C19.9342 4.59136 19.9342 4.59136 19.7666 5.00406C19.6659 5.19296 19.6659 5.19296 19.5631 5.38568C18.6453 7.22806 18.9599 8.60198 19.5765 10.4922C19.6307 10.6506 19.685 10.8089 19.7408 10.9721C19.7925 11.1229 19.8441 11.2738 19.8972 11.4292C19.945 11.5644 19.9928 11.6996 20.042 11.8389C20.1467 12.2265 20.1467 12.2265 20.1467 12.9868C19.4567 12.9868 18.7668 12.9868 18.056 12.9868C17.8688 12.4407 17.6829 11.8942 17.4976 11.3475C17.4448 11.1939 17.392 11.0403 17.3376 10.882C16.5604 8.57833 16.3982 6.47665 17.4858 4.2438C18.3796 2.65449 19.8146 1.55267 21.5603 1.03645C22.464 0.824034 23.361 0.735071 24.2873 0.691214C24.7469 0.670287 24.7469 0.670287 25.0884 0.25243C26.1647 0.101314 27.258 0.0902267 28.3434 0.0458458Z" fill="#76BBDD"/>
<path d="M28.3427 0.0458458C28.7307 0.0315712 29.1185 0.0222162 29.5068 0.0148489C29.739 0.00994873 29.9713 0.00504861 30.2106 0C30.7897 0.0623652 30.7897 0.0623652 31.1498 0.2554C31.4863 0.859378 31.4497 1.4802 31.4431 2.15308C31.4488 2.35962 31.4488 2.35962 31.4546 2.57034C31.454 3.17284 31.4417 3.57074 31.06 4.05077C30.4316 4.31429 29.9129 4.3054 29.2336 4.29132C28.8767 4.28691 28.8767 4.28691 28.5126 4.28241C27.9387 4.2438 27.9387 4.2438 27.7487 4.05374C27.0663 3.99939 26.384 3.96838 25.7003 3.93569C25.0877 3.86367 25.0877 3.86367 24.7076 3.48354C24.6699 2.99976 24.6547 2.54136 24.6601 2.05805C24.6586 1.92697 24.6572 1.79589 24.6556 1.66084C24.6595 0.680711 24.6595 0.680711 25.0877 0.25243C26.1641 0.101314 27.2574 0.0902267 28.3427 0.0458458Z" fill="#F97316"/>
<path d="M39.1177 0.0144055C39.2426 0.0166258 39.3675 0.0188462 39.4961 0.0211339C42.8733 0.0981817 42.8733 0.0981817 43.905 0.442052C43.9152 0.941025 43.9227 1.43979 43.9287 1.93882C43.9319 2.08068 43.9351 2.22253 43.9384 2.36869C43.9417 2.74031 43.9246 3.11198 43.905 3.4831C43.3656 4.02247 42.8113 3.94258 42.0874 3.97014C41.2153 3.9311 41.2153 3.9311 40.4838 4.24336C40.1205 4.27734 39.7556 4.2943 39.3909 4.30275C39.1919 4.30986 38.993 4.31696 38.788 4.32428C38.0418 4.22106 37.748 4.05078 37.2527 3.4831C37.1398 2.80525 37.1398 2.80525 37.1576 2.04573C37.1571 1.91796 37.1566 1.79019 37.1561 1.65854C37.1665 1.13454 37.2019 0.721673 37.4628 0.261639C38.0168 -0.0456273 38.4889 0.00123748 39.1177 0.0144055Z" fill="#F97316"/>
<path d="M22.0471 20.209C22.4272 20.399 22.4272 20.399 22.6023 20.8662C22.6611 21.0698 22.72 21.2733 22.7806 21.483C22.8797 21.8191 22.8797 21.8191 22.9807 22.162C23.0831 22.5124 23.0831 22.5124 23.1875 22.8699C23.3223 23.3087 23.4579 23.7472 23.5944 24.1855C23.7948 24.8344 23.7948 24.8344 23.9953 25.4833C24.0989 25.8177 24.0989 25.8177 24.2047 26.1589C24.2698 26.3701 24.335 26.5813 24.4021 26.7989C24.461 26.9892 24.5199 27.1795 24.5805 27.3756C24.708 27.8116 24.708 27.8116 24.708 28.0017C24.1419 28.0573 24.1419 28.0573 23.5758 28.113C23.1305 28.1778 23.1305 28.1778 22.6173 28.5719C22.4781 28.0057 22.4781 28.0057 22.3389 27.4396C22.2543 27.1166 22.1527 26.798 22.0471 26.4811C22.031 26.0034 22.0251 25.5311 22.0286 25.0534C22.0288 24.915 22.0291 24.7766 22.0294 24.634C22.0304 24.1925 22.0328 23.751 22.0352 23.3094C22.0362 23.0098 22.0371 22.7103 22.0378 22.4107C22.0399 21.6768 22.0432 20.9429 22.0471 20.209Z" fill="#76BBDD"/>
<path d="M99.8787 43.9674C97.6253 43.9674 95.6684 43.5082 94.008 42.5899C92.3476 41.6715 91.0578 40.3681 90.1386 38.6795C89.2195 36.9614 88.7599 34.9469 88.7599 32.6363C88.7599 30.8885 89.0119 29.3332 89.516 27.9705C90.0497 26.5782 90.8058 25.3933 91.7842 24.4157C92.7627 23.4085 93.9339 22.6531 95.2978 22.1495C96.6617 21.6162 98.1887 21.3496 99.8787 21.3496C102.132 21.3496 104.089 21.8088 105.749 22.7271C107.41 23.6455 108.7 24.9489 109.619 26.6375C110.538 28.326 110.998 30.3256 110.998 32.6363C110.998 34.3841 110.731 35.9541 110.197 37.3465C109.693 38.7388 108.952 39.9385 107.973 40.9458C106.995 41.9233 105.824 42.6787 104.46 43.212C103.096 43.7156 101.569 43.9674 99.8787 43.9674ZM99.8787 39.746C100.976 39.746 101.939 39.4794 102.77 38.9461C103.6 38.4129 104.237 37.6279 104.682 36.5911C105.156 35.5246 105.394 34.2063 105.394 32.6363C105.394 30.2664 104.89 28.5038 103.882 27.3484C102.873 26.1635 101.539 25.571 99.8787 25.571C98.7817 25.571 97.818 25.8376 96.9878 26.3708C96.1576 26.8744 95.5053 27.6595 95.0309 28.7259C94.5862 29.7628 94.3638 31.0662 94.3638 32.6363C94.3638 34.9766 94.8678 36.754 95.8759 37.9686C96.8841 39.1535 98.2183 39.746 99.8787 39.746Z" fill="#FFFDFB" fill-opacity="0.984314"/>
<path d="M60.6611 42.8268C58.38 42.8268 56.3952 42.3676 54.7067 41.4493C53.0181 40.5013 51.7147 39.1682 50.7963 37.45C49.878 35.7319 49.4188 33.7174 49.4188 31.4068C49.4188 29.659 49.6706 28.1037 50.1742 26.741C50.7075 25.3487 51.4629 24.1786 52.4405 23.2306C53.418 22.253 54.603 21.5124 55.9953 21.0088C57.3876 20.4756 58.9429 20.209 60.6611 20.209C61.6386 20.209 62.6903 20.3423 63.816 20.6089C64.9713 20.8755 66.0526 21.3199 67.0598 21.942C67.5338 22.2382 67.8448 22.5937 67.9929 23.0084C68.1411 23.4232 68.1707 23.8527 68.0818 24.2971C67.9929 24.7118 67.8004 25.0821 67.5042 25.408C67.2375 25.7042 66.8969 25.8968 66.4821 25.9856C66.0674 26.0449 65.6082 25.9412 65.1046 25.6746C64.4529 25.2895 63.7864 25.008 63.105 24.8303C62.4237 24.6229 61.7719 24.5192 61.1498 24.5192C60.1723 24.5192 59.3132 24.6822 58.5726 25.008C57.832 25.3043 57.1951 25.7486 56.6618 26.3411C56.1582 26.904 55.7731 27.6149 55.5065 28.474C55.2399 29.3331 55.1066 30.3255 55.1066 31.4512C55.1066 33.6434 55.625 35.3764 56.6618 36.6502C57.7283 37.8944 59.2243 38.5165 61.1498 38.5165C61.7719 38.5165 62.4089 38.4276 63.0606 38.2499C63.7419 38.0721 64.4233 37.7907 65.1046 37.4056C65.6082 37.139 66.0526 37.0501 66.4377 37.139C66.8524 37.2279 67.1931 37.4352 67.4597 37.7611C67.7263 38.0573 67.8893 38.4276 67.9485 38.872C68.0078 39.2867 67.9485 39.7014 67.7708 40.1162C67.6227 40.5309 67.3264 40.8716 66.8821 41.1382C65.9045 41.7307 64.8676 42.1602 63.7716 42.4268C62.6755 42.6934 61.6386 42.8268 60.6611 42.8268Z" fill="white"/>
<path d="M82.0897 43.0169C80.1726 43.0169 78.5651 42.6924 77.2674 42.0436C75.9991 41.3947 75.0553 40.4509 74.4359 39.2121C73.8165 37.9438 73.5068 36.3806 73.5068 34.5224V25.0989H71.2062C70.4984 25.0989 69.9527 24.922 69.5693 24.568C69.1859 24.1846 68.9941 23.6684 68.9941 23.0196C68.9941 22.3412 69.1859 21.825 69.5693 21.4711C69.9527 21.1172 70.4984 20.9402 71.2062 20.9402H73.5068V16.9142C73.5068 15.9999 73.7428 15.3067 74.2147 14.8348C74.7161 14.3629 75.4092 14.127 76.294 14.127C77.1789 14.127 77.8573 14.3629 78.3292 14.8348C78.8011 15.3067 79.037 15.9999 79.037 16.9142V20.9402H83.7267C84.4345 20.9402 84.9802 21.1172 85.3636 21.4711C85.7471 21.825 85.9388 22.3412 85.9388 23.0196C85.9388 23.6684 85.7471 24.1846 85.3636 24.568C84.9802 24.922 84.4345 25.0989 83.7267 25.0989H79.037V34.2128C79.037 35.6285 79.3467 36.6903 79.9661 37.3982C80.5855 38.106 81.5883 38.46 82.9746 38.46C83.476 38.46 83.9184 38.4157 84.3018 38.3272C84.6853 38.2388 85.0244 38.1798 85.3194 38.1503C85.6733 38.1208 85.9683 38.2388 86.2042 38.5042C86.4402 38.7402 86.5582 39.2416 86.5582 40.0084C86.5582 40.5983 86.4549 41.1292 86.2485 41.6011C86.0715 42.0436 85.7323 42.3533 85.2309 42.5302C84.8475 42.6482 84.3461 42.7514 83.7267 42.8399C83.1073 42.9579 82.5616 43.0169 82.0897 43.0169Z" fill="white"/>
<path d="M115.561 42.8268C114.64 42.8268 113.927 42.589 113.421 42.1134C112.946 41.608 112.708 40.8946 112.708 39.9732V23.1191C112.708 22.1976 112.946 21.499 113.421 21.0234C113.897 20.5478 114.566 20.3101 115.428 20.3101C116.29 20.3101 116.959 20.5478 117.434 21.0234C117.91 21.499 118.148 22.1976 118.148 23.1191V25.9281H117.702C118.118 24.1446 118.935 22.7921 120.154 21.8706C121.373 20.9491 122.993 20.3992 125.014 20.2209C125.638 20.1614 126.129 20.3249 126.485 20.7113C126.872 21.068 127.095 21.6328 127.154 22.4057C127.214 23.1488 127.035 23.7582 126.619 24.2338C126.233 24.6796 125.638 24.9472 124.836 25.0363L123.855 25.1255C122.042 25.3039 120.674 25.8686 119.753 26.8198C118.831 27.7413 118.371 29.0492 118.371 30.7435V39.9732C118.371 40.8946 118.133 41.608 117.657 42.1134C117.182 42.589 116.483 42.8268 115.561 42.8268Z" fill="white"/>
<path d="M16.1562 16.6932C16.1562 15.3811 17.2199 14.3174 18.5321 14.3174C19.8442 14.3174 20.9079 15.3811 20.9079 16.6932V32.3736H16.1562V16.6932Z" fill="white"/>
<path d="M10.4541 23.0605C16.2273 23.0608 20.9072 27.7415 20.9072 33.5146C20.907 39.2876 16.2271 43.9675 10.4541 43.9678C4.68088 43.9678 0.000239679 39.2878 0 33.5146C0 27.7413 4.68073 23.0605 10.4541 23.0605ZM10.3584 27.6221C7.1568 27.6221 4.56152 30.2183 4.56152 33.4199C4.56178 36.6213 7.15696 39.2168 10.3584 39.2168C13.5597 39.2167 16.155 36.6212 16.1553 33.4199C16.1553 30.2184 13.5599 27.6222 10.3584 27.6221Z" fill="white"/>
<path d="M133.435 43.0169C132.161 43.0169 131.052 42.7198 130.109 42.1255C129.165 41.5121 128.437 40.6496 127.924 39.5378C127.411 38.426 127.155 37.1226 127.155 35.6275C127.155 34.4965 127.295 33.4902 127.577 32.6085C127.875 31.7075 128.297 30.9504 128.843 30.337C129.389 29.7045 130.051 29.2252 130.828 28.8994C131.606 28.5544 132.475 28.3818 133.435 28.3818C133.981 28.3818 134.568 28.4681 135.197 28.6406C135.843 28.8131 136.447 29.1006 137.009 29.5032C137.274 29.6949 137.448 29.9249 137.531 30.1932C137.613 30.4616 137.63 30.7395 137.58 31.0271C137.531 31.2954 137.423 31.535 137.258 31.7459C137.109 31.9376 136.918 32.0622 136.687 32.1197C136.455 32.158 136.199 32.0909 135.917 31.9184C135.553 31.6692 135.181 31.4871 134.8 31.3721C134.42 31.2379 134.055 31.1708 133.708 31.1708C133.162 31.1708 132.682 31.2763 132.268 31.4871C131.854 31.6788 131.499 31.9663 131.201 32.3497C130.919 32.7139 130.704 33.1739 130.555 33.7298C130.406 34.2857 130.332 34.9278 130.332 35.6562C130.332 37.0747 130.622 38.196 131.201 39.0203C131.797 39.8253 132.632 40.2279 133.708 40.2279C134.055 40.2279 134.411 40.1704 134.775 40.0554C135.156 39.9403 135.537 39.7582 135.917 39.5091C136.199 39.3365 136.447 39.279 136.662 39.3365C136.894 39.394 137.084 39.5282 137.233 39.7391C137.382 39.9308 137.473 40.1704 137.506 40.4579C137.539 40.7262 137.506 40.9946 137.407 41.263C137.324 41.5313 137.158 41.7518 136.91 41.9243C136.364 42.3076 135.785 42.5856 135.173 42.7581C134.56 42.9306 133.981 43.0169 133.435 43.0169Z" fill="white"/>
<path d="M160.9 28.1914C164.108 28.1914 166.708 31.5101 166.708 35.604V43.0165H164.244V34.9302C164.244 32.5731 162.747 30.6622 160.9 30.6622C159.054 30.6622 157.557 32.5731 157.557 34.9302V43.0165H155.093V35.604C155.093 31.5101 157.693 28.1914 160.9 28.1914Z" fill="white"/>
<path d="M170.192 28.1914C173.4 28.1914 176 31.5101 176 35.604V43.0165H173.536V34.9302C173.536 32.5731 172.039 30.6622 170.192 30.6622C168.346 30.6622 166.849 32.5731 166.849 34.9302V43.0165H164.385V35.604C164.385 31.5101 166.985 28.1914 170.192 28.1914Z" fill="white"/>
<ellipse cx="146.445" cy="35.3189" rx="7.12747" ry="7.12745" fill="white"/>
<path d="M150.723 35.3194C150.723 37.6813 148.808 39.5959 146.446 39.5959C144.084 39.5959 142.17 37.6813 142.17 35.3194C142.17 32.9576 144.084 31.043 146.446 31.043C148.808 31.043 150.723 32.9576 150.723 35.3194Z" fill="#76BBDD"/>
<path d="M33.0721 41.6278C37.5386 81.6329 122.688 73.594 143.88 41.6278L141.966 39.6207C113.85 75.1072 38.6792 72.4591 35.4479 41.6278L33.0721 41.6278Z" fill="white"/>
<ellipse cx="146.446" cy="35.3198" rx="2.56589" ry="2.56588" fill="white"/>
</svg>
